<?xml version="1.0" encoding="UTF-8"?>
<svg width="120px" height="162px" viewBox="0 0 120 162" version="1.1" xmlns="http://www.w3.org/2000/svg" xmlns:xlink="http://www.w3.org/1999/xlink">
    <!-- Generator: Sketch 55.2 (78181) - https://sketchapp.com -->
    <title>Group</title>
    <desc>Created with Sketch.</desc>
    <g id="Page-1" stroke="none" stroke-width="1" fill="none" fill-rule="evenodd">
        <g id="Artboard" transform="translate(-142.000000, -44.000000)" fill="#000000" fill-rule="nonzero">
            <g id="Group" transform="translate(142.000000, 44.000000)">
                <g id="Shape">
                    <path d="M113.513514,29.16 L108.643784,29.16 L11.3562162,29.16 L6.48648649,29.16 L6.48648649,19.44 L12.9616216,19.44 L107.04,19.44 L113.513514,19.44 L113.513514,29.16 Z M101.401622,61.56 L18.5983784,61.56 L15.4345946,35.64 L104.565405,35.64 L101.401622,61.56 Z M89.9318919,155.52 L30.0681081,155.52 L24.9259459,113.4 L95.0740541,113.4 L89.9318919,155.52 Z M19.3897297,68.04 L100.61027,68.04 L95.8654054,106.92 L24.1345946,106.92 L19.3897297,68.04 Z M20.9740541,6.48 L99.0275676,6.48 L101.223243,12.96 L18.7767568,12.96 L20.9740541,6.48 Z M116.76,12.96 L108.072973,12.96 L104.722703,3.07962 C104.142162,1.36728 102.227027,0 100.438378,0 L19.5616216,0 C17.7664865,0 15.8545946,1.38024 15.2772973,3.07962 L11.927027,12.96 L3.24162162,12.96 C1.45297297,12.96 0,14.41476 0,16.20972 L0,32.39028 C0,34.18686 1.45135135,35.64 3.24162162,35.64 L8.89945946,35.64 L23.9318919,158.78268 C24.1475676,160.55334 25.7789189,162 27.5756757,162 L92.4243243,162 C94.2194595,162 95.8508108,160.55982 96.0681081,158.78268 L111.100541,35.64 L116.76,35.64 C118.547027,35.64 120,34.18524 120,32.39028 L120,16.20972 C120,14.41314 118.548649,12.96 116.76,12.96 L116.76,12.96 Z"></path>
                </g>
            </g>
        </g>
    </g>
</svg>